# Blender v2.69 (sub 0) OBJ File: 'kernel-thick.blend'
# www.blender.org
o thread-a
v -1.000000 1.000000 -1.400000
v -1.000000 1.282819 -1.282819
v -1.000000 1.400000 -1.000000
v -1.000000 1.282819 -0.717181
v -1.000000 1.000000 -0.600000
v -1.000000 0.717181 -0.717181
v -1.000000 0.600000 -1.000000
v -1.000000 0.717181 -1.282819
v -0.566807 1.000000 -1.298268
v -0.609623 1.282819 -1.189189
v -0.712963 1.400000 -0.925926
v -0.816302 1.282819 -0.662663
v -0.859119 1.000000 -0.553584
v -0.816302 0.717181 -0.662663
v -0.712963 0.600000 -0.925926
v -0.609624 0.717181 -1.189189
v -0.166103 1.000000 -1.084651
v -0.225943 1.282819 -0.983902
v -0.370370 1.400000 -0.740741
v -0.514797 1.282819 -0.497580
v -0.574638 1.000000 -0.396830
v -0.514797 0.717181 -0.497580
v -0.370370 0.600000 -0.740741
v -0.225943 0.717181 -0.983902
v 0.217995 1.000000 -0.835377
v 0.154133 1.282819 -0.737128
v -0.000000 1.400000 -0.500000
v -0.154133 1.282819 -0.262872
v -0.217995 1.000000 -0.164622
v -0.154133 0.717181 -0.262872
v -0.000000 0.600000 -0.500000
v 0.154133 0.717181 -0.737128
v 0.574638 1.000000 -0.603170
v 0.514797 1.282819 -0.502420
v 0.370370 1.400000 -0.259259
v 0.225943 1.282819 -0.016098
v 0.166102 1.000000 0.084652
v 0.225943 0.717181 -0.016098
v 0.370370 0.600000 -0.259259
v 0.514797 0.717181 -0.502420
v 0.859119 1.000000 -0.446416
v 0.816302 1.282819 -0.337337
v 0.712963 1.400000 -0.074074
v 0.609623 1.282819 0.189189
v 0.566807 1.000000 0.298268
v 0.609623 0.717181 0.189189
v 0.712963 0.600000 -0.074074
v 0.816302 0.717181 -0.337337
v 1.000000 1.000000 -0.400000
v 1.000000 1.282819 -0.282819
v 1.000000 1.400000 0.000000
v 1.000000 1.282819 0.282819
v 1.000000 1.000000 0.400000
v 1.000000 0.717181 0.282819
v 1.000000 0.600000 -0.000000
v 1.000000 0.717181 -0.282819
vn 0.231308 -0.000000 -0.972881
vn 0.353282 0.000000 -0.935514
vn 0.256111 -0.691549 -0.675375
vn 0.174627 0.670286 -0.721264
vn 0.256111 0.691549 -0.675375
vn 0.014009 0.997870 -0.063711
vn 0.009827 0.999512 -0.029206
vn -0.197552 0.731982 0.652055
vn -0.265572 0.719138 0.642048
vn -0.312922 -0.000000 0.949779
vn -0.395245 0.000000 0.918546
vn -0.197552 -0.731983 0.652054
vn -0.265572 -0.719138 0.642048
vn 0.014009 -0.997870 -0.063711
vn 0.009827 -0.999512 -0.029206
vn 0.174627 -0.670286 -0.721264
vn 0.507950 0.000000 -0.861354
vn 0.362102 -0.701865 -0.613392
vn 0.362102 0.701865 -0.613392
vn 0.004883 0.999939 -0.008850
vn -0.360302 0.711570 0.603168
vn -0.513871 0.000000 0.857845
vn -0.360302 -0.711570 0.603168
vn 0.004883 -0.999939 -0.008850
vn 0.544939 0.000000 -0.838466
vn 0.385357 -0.706992 -0.592975
vn 0.385357 0.706992 -0.592975
vn 0.000000 0.999969 0.000000
vn -0.385357 0.706992 0.592975
vn -0.544939 0.000000 0.838466
vn -0.385357 -0.706992 0.592975
vn 0.000000 -1.000000 0.000000
vn 0.513871 0.000000 -0.857845
vn 0.360302 -0.711570 -0.603168
vn 0.360302 0.711570 -0.603168
vn -0.004883 0.999939 0.008850
vn -0.362102 0.701865 0.613392
vn -0.507950 0.000000 0.861354
vn -0.362102 -0.701865 0.613392
vn -0.004883 -0.999939 0.008850
vn 0.395245 0.000000 -0.918546
vn 0.265572 -0.719138 -0.642048
vn 0.265572 0.719138 -0.642048
vn -0.009827 0.999512 0.029206
vn -0.256111 0.691549 0.675375
vn -0.353282 0.000000 0.935514
vn -0.256111 -0.691549 0.675375
vn -0.009827 -0.999512 0.029206
vn 0.312922 0.000000 -0.949779
vn 0.197551 -0.731982 -0.652055
vn 0.197551 0.731982 -0.652055
vn -0.014010 0.997870 0.063711
vn -0.174626 0.670286 0.721265
vn -0.231308 -0.000000 0.972881
vn -0.174626 -0.670286 0.721265
vn -0.014009 -0.997870 0.063711
s 1
f 1//1 9//2 16//3
f 2//4 10//5 1//1
f 3//6 11//7 2//4
f 4//8 12//9 3//6
f 5//10 13//11 4//8
f 6//12 14//13 13//11
f 7//14 15//15 14//13
f 8//16 16//3 15//15
f 9//2 17//17 24//18
f 10//5 18//19 9//2
f 11//7 19//20 10//5
f 12//9 20//21 11//7
f 13//11 21//22 12//9
f 14//13 22//23 21//22
f 15//15 23//24 22//23
f 16//3 24//18 23//24
f 17//17 25//25 32//26
f 18//19 26//27 17//17
f 19//20 27//28 18//19
f 20//21 28//29 19//20
f 21//22 29//30 20//21
f 22//23 30//31 29//30
f 23//24 31//32 30//31
f 24//18 32//26 31//32
f 25//25 33//33 40//34
f 26//27 34//35 25//25
f 27//28 35//36 26//27
f 28//29 36//37 27//28
f 29//30 37//38 28//29
f 30//31 38//39 37//38
f 31//32 39//40 38//39
f 32//26 40//34 39//40
f 33//33 41//41 48//42
f 34//35 42//43 33//33
f 35//36 43//44 34//35
f 36//37 44//45 35//36
f 37//38 45//46 36//37
f 38//39 46//47 45//46
f 39//40 47//48 46//47
f 40//34 48//42 47//48
f 41//41 49//49 56//50
f 42//43 50//51 41//41
f 43//44 51//52 42//43
f 44//45 52//53 43//44
f 45//46 53//54 44//45
f 46//47 54//55 53//54
f 47//48 55//56 54//55
f 48//42 56//50 55//56
f 8//16 1//1 16//3
f 10//5 9//2 1//1
f 11//7 10//5 2//4
f 12//9 11//7 3//6
f 13//11 12//9 4//8
f 5//10 6//12 13//11
f 6//12 7//14 14//13
f 7//14 8//16 15//15
f 16//3 9//2 24//18
f 18//19 17//17 9//2
f 19//20 18//19 10//5
f 20//21 19//20 11//7
f 21//22 20//21 12//9
f 13//11 14//13 21//22
f 14//13 15//15 22//23
f 15//15 16//3 23//24
f 24//18 17//17 32//26
f 26//27 25//25 17//17
f 27//28 26//27 18//19
f 28//29 27//28 19//20
f 29//30 28//29 20//21
f 21//22 22//23 29//30
f 22//23 23//24 30//31
f 23//24 24//18 31//32
f 32//26 25//25 40//34
f 34//35 33//33 25//25
f 35//36 34//35 26//27
f 36//37 35//36 27//28
f 37//38 36//37 28//29
f 29//30 30//31 37//38
f 30//31 31//32 38//39
f 31//32 32//26 39//40
f 40//34 33//33 48//42
f 42//43 41//41 33//33
f 43//44 42//43 34//35
f 44//45 43//44 35//36
f 45//46 44//45 36//37
f 37//38 38//39 45//46
f 38//39 39//40 46//47
f 39//40 40//34 47//48
f 48//42 41//41 56//50
f 50//51 49//49 41//41
f 51//52 50//51 42//43
f 52//53 51//52 43//44
f 53//54 52//53 44//45
f 45//46 46//47 53//54
f 46//47 47//48 54//55
f 47//48 48//42 55//56
