# Blender v2.69 (sub 0) OBJ File: 'kernel-thick.blend'
# www.blender.org
o thread-b_BezierCurve.001
v -1.000000 0.000000 -1.400000
v -1.000000 0.282819 -1.282819
v -1.000000 0.400000 -1.000000
v -1.000000 0.282819 -0.717181
v -1.000000 0.000000 -0.600000
v -1.000000 -0.282819 -0.717181
v -1.000000 -0.400000 -1.000000
v -1.000000 -0.282819 -1.282819
v -0.712963 0.074074 -1.400000
v -0.816302 0.337337 -1.282819
v -0.859119 0.446416 -1.000000
v -0.816302 0.337337 -0.717181
v -0.712963 0.074074 -0.600000
v -0.609623 -0.189189 -0.717181
v -0.566807 -0.298268 -1.000000
v -0.609623 -0.189189 -1.282819
v -0.370370 0.259259 -1.400000
v -0.514797 0.502420 -1.282819
v -0.574638 0.603170 -1.000000
v -0.514797 0.502420 -0.717181
v -0.370370 0.259259 -0.600000
v -0.225943 0.016098 -0.717181
v -0.166103 -0.084651 -1.000000
v -0.225943 0.016098 -1.282819
v -0.000000 0.500000 -1.400000
v -0.154133 0.737128 -1.282819
v -0.217995 0.835377 -1.000000
v -0.154133 0.737128 -0.717181
v -0.000000 0.500000 -0.600000
v 0.154133 0.262872 -0.717181
v 0.217995 0.164623 -1.000000
v 0.154133 0.262873 -1.282819
v 0.370370 0.740741 -1.400000
v 0.225943 0.983902 -1.282819
v 0.166102 1.084652 -1.000000
v 0.225943 0.983902 -0.717181
v 0.370370 0.740741 -0.600000
v 0.514797 0.497580 -0.717181
v 0.574638 0.396830 -1.000000
v 0.514797 0.497580 -1.282819
v 0.712963 0.925926 -1.400000
v 0.609623 1.189189 -1.282819
v 0.566807 1.298268 -1.000000
v 0.609623 1.189189 -0.717181
v 0.712963 0.925926 -0.600000
v 0.816302 0.662663 -0.717181
v 0.859119 0.553584 -1.000000
v 0.816302 0.662663 -1.282819
v 1.000000 1.000000 -1.400000
v 1.000000 1.282819 -1.282819
v 1.000000 1.400000 -1.000000
v 1.000000 1.282819 -0.717181
v 1.000000 1.000000 -0.600000
v 1.000000 0.717181 -0.717181
v 1.000000 0.600000 -1.000000
v 1.000000 0.717181 -1.282819
vn 0.014010 -0.063711 -0.997870
vn 0.009827 -0.029206 -0.999512
vn 0.174627 -0.721264 -0.670286
vn -0.197552 0.652054 -0.731983
vn -0.265572 0.642048 -0.719138
vn -0.312922 0.949779 0.000000
vn -0.395245 0.918546 0.000000
vn -0.197552 0.652054 0.731983
vn -0.265572 0.642048 0.719138
vn 0.014010 -0.063711 0.997870
vn 0.009827 -0.029206 0.999512
vn 0.174626 -0.721264 0.670286
vn 0.256111 -0.675375 0.691549
vn 0.231308 -0.972881 -0.000000
vn 0.353282 -0.935514 0.000000
vn 0.256111 -0.675375 -0.691549
vn 0.004883 -0.008850 -0.999939
vn -0.360302 0.603168 -0.711570
vn -0.513871 0.857845 0.000000
vn -0.360302 0.603168 0.711570
vn 0.004883 -0.008850 0.999939
vn 0.362102 -0.613392 0.701865
vn 0.507950 -0.861354 0.000000
vn 0.362102 -0.613392 -0.701865
vn 0.000000 0.000000 -0.999969
vn -0.385357 0.592975 -0.706992
vn -0.544939 0.838466 0.000000
vn -0.385357 0.592975 0.706992
vn 0.000000 0.000000 0.999969
vn 0.385357 -0.592975 0.706992
vn 0.544939 -0.838466 0.000000
vn 0.385357 -0.592975 -0.706992
vn -0.004883 0.008850 -0.999939
vn -0.362102 0.613392 -0.701865
vn -0.507950 0.861354 0.000000
vn -0.362102 0.613392 0.701865
vn -0.004883 0.008850 0.999939
vn 0.360302 -0.603168 0.711570
vn 0.513871 -0.857845 0.000000
vn 0.360302 -0.603168 -0.711570
vn -0.009827 0.029206 -0.999512
vn -0.256111 0.675375 -0.691549
vn -0.353282 0.935514 0.000000
vn -0.256111 0.675375 0.691549
vn -0.009827 0.029206 0.999512
vn 0.265572 -0.642048 0.719138
vn 0.395245 -0.918546 0.000000
vn 0.265572 -0.642048 -0.719138
vn -0.014010 0.063710 -0.997870
vn -0.174626 0.721264 -0.670286
vn -0.231308 0.972881 0.000000
vn -0.174626 0.721264 0.670286
vn -0.014009 0.063711 0.997870
vn 0.197551 -0.652055 0.731982
vn 0.312921 -0.949779 0.000000
vn 0.197551 -0.652055 -0.731982
s 1
f 1//1 9//2 8//3
f 2//4 10//5 1//1
f 3//6 11//7 2//4
f 4//8 12//9 11//7
f 5//10 13//11 12//9
f 6//12 14//13 13//11
f 7//14 15//15 14//13
f 8//3 16//16 7//14
f 9//2 17//17 16//16
f 10//5 18//18 9//2
f 11//7 19//19 10//5
f 12//9 20//20 19//19
f 13//11 21//21 20//20
f 14//13 22//22 21//21
f 15//15 23//23 22//22
f 16//16 24//24 15//15
f 17//17 25//25 24//24
f 18//18 26//26 17//17
f 19//19 27//27 18//18
f 20//20 28//28 27//27
f 21//21 29//29 28//28
f 22//22 30//30 29//29
f 23//23 31//31 30//30
f 24//24 32//32 23//23
f 25//25 33//33 32//32
f 26//26 34//34 25//25
f 27//27 35//35 26//26
f 28//28 36//36 35//35
f 29//29 37//37 36//36
f 30//30 38//38 37//37
f 31//31 39//39 38//38
f 32//32 40//40 31//31
f 33//33 41//41 40//40
f 34//34 42//42 33//33
f 35//35 43//43 34//34
f 36//36 44//44 43//43
f 37//37 45//45 44//44
f 38//38 46//46 45//45
f 39//39 47//47 46//46
f 40//40 48//48 39//39
f 41//41 49//49 48//48
f 42//42 50//50 41//41
f 43//43 51//51 42//42
f 44//44 52//52 51//51
f 45//45 53//53 52//52
f 46//46 54//54 53//53
f 47//47 55//55 54//54
f 48//48 56//56 47//47
f 9//2 16//16 8//3
f 10//5 9//2 1//1
f 11//7 10//5 2//4
f 3//6 4//8 11//7
f 4//8 5//10 12//9
f 5//10 6//12 13//11
f 6//12 7//14 14//13
f 16//16 15//15 7//14
f 17//17 24//24 16//16
f 18//18 17//17 9//2
f 19//19 18//18 10//5
f 11//7 12//9 19//19
f 12//9 13//11 20//20
f 13//11 14//13 21//21
f 14//13 15//15 22//22
f 24//24 23//23 15//15
f 25//25 32//32 24//24
f 26//26 25//25 17//17
f 27//27 26//26 18//18
f 19//19 20//20 27//27
f 20//20 21//21 28//28
f 21//21 22//22 29//29
f 22//22 23//23 30//30
f 32//32 31//31 23//23
f 33//33 40//40 32//32
f 34//34 33//33 25//25
f 35//35 34//34 26//26
f 27//27 28//28 35//35
f 28//28 29//29 36//36
f 29//29 30//30 37//37
f 30//30 31//31 38//38
f 40//40 39//39 31//31
f 41//41 48//48 40//40
f 42//42 41//41 33//33
f 43//43 42//42 34//34
f 35//35 36//36 43//43
f 36//36 37//37 44//44
f 37//37 38//38 45//45
f 38//38 39//39 46//46
f 48//48 47//47 39//39
f 49//49 56//56 48//48
f 50//50 49//49 41//41
f 51//51 50//50 42//42
f 43//43 44//44 51//51
f 44//44 45//45 52//52
f 45//45 46//46 53//53
f 46//46 47//47 54//54
f 56//56 55//55 47//47
