# Blender v2.69 (sub 0) OBJ File: 'kernel2.blend'
# www.blender.org
o thread-c.005_BezierCurve.016
v 1.000000 -0.500000 -0.400000
v 1.000000 -0.217181 -0.282819
v 1.000000 -0.100000 -0.000000
v 1.000000 -0.217181 0.282819
v 1.000000 -0.500000 0.400000
v 1.000000 -0.782819 0.282819
v 1.000000 -0.900000 0.000000
v 1.000000 -0.782819 -0.282819
v 0.712963 -0.462963 -0.400000
v 0.768081 -0.185567 -0.282819
v 0.790918 -0.070633 -0.000000
v 0.768081 -0.185567 0.282819
v 0.712963 -0.462963 0.400000
v 0.657845 -0.740359 0.282819
v 0.635008 -0.855293 0.000000
v 0.657845 -0.740359 -0.282819
v 0.370370 -0.370370 -0.400000
v 0.450999 -0.099288 -0.282819
v 0.484405 0.013030 -0.000000
v 0.450999 -0.099288 0.282819
v 0.370370 -0.370370 0.400000
v 0.289742 -0.641453 0.282819
v 0.256335 -0.753771 0.000000
v 0.289742 -0.641453 -0.282819
v 0.000000 -0.250000 -0.400000
v 0.087415 0.018970 -0.282819
v 0.123635 0.130414 -0.000000
v 0.087416 0.018970 0.282819
v 0.000000 -0.250000 0.400000
v -0.087415 -0.518970 0.282819
v -0.123634 -0.630414 0.000000
v -0.087415 -0.518970 -0.282819
v -0.370370 -0.129630 -0.400000
v -0.289742 0.141453 -0.282819
v -0.256335 0.253771 -0.000000
v -0.289742 0.141453 0.282819
v -0.370370 -0.129630 0.400000
v -0.450998 -0.400712 0.282819
v -0.484405 -0.513030 0.000000
v -0.450998 -0.400712 -0.282819
v -0.712963 -0.037037 -0.400000
v -0.657845 0.240359 -0.282819
v -0.635008 0.355293 -0.000000
v -0.657845 0.240359 0.282819
v -0.712963 -0.037037 0.400000
v -0.768081 -0.314433 0.282819
v -0.790918 -0.429367 0.000000
v -0.768081 -0.314433 -0.282819
v -1.000000 -0.000000 -0.400000
v -1.000000 0.282819 -0.282819
v -1.000000 0.400000 -0.000000
v -1.000000 0.282819 0.282819
v -1.000000 0.000000 0.400000
v -1.000000 -0.282819 0.282819
v -1.000000 -0.400000 0.000000
v -1.000000 -0.282819 -0.282819
vn 0.003523 0.031811 0.999488
vn 0.002899 0.016602 0.999847
vn 0.089606 0.718320 0.689918
vn -0.094291 -0.686214 0.721263
vn -0.139012 -0.685202 0.714927
vn -0.139093 -0.990279 0.000000
vn -0.200842 -0.979614 0.000000
vn -0.094290 -0.686214 -0.721263
vn -0.139012 -0.685202 -0.714927
vn 0.003523 0.031811 -0.999488
vn 0.002899 0.016602 -0.999847
vn 0.089606 0.718320 -0.689918
vn 0.137028 0.702200 -0.698630
vn 0.122423 0.992478 -0.000000
vn 0.190924 0.981597 0.000000
vn 0.137028 0.702200 0.698630
vn 0.001648 0.005982 0.999969
vn -0.201300 -0.674764 0.710013
vn -0.286233 -0.958129 0.000000
vn -0.201300 -0.674764 -0.710013
vn 0.001648 0.005982 -0.999969
vn 0.201819 0.680960 -0.703940
vn 0.283975 0.958800 0.000000
vn 0.201819 0.680960 0.703940
vn 0.000000 0.000000 0.999969
vn -0.218543 -0.672506 0.707053
vn -0.309061 -0.951018 0.000000
vn -0.218543 -0.672506 -0.707053
vn 0.000000 0.000000 -0.999969
vn 0.218543 0.672506 -0.707053
vn 0.309061 0.951018 0.000000
vn 0.218543 0.672506 0.707053
vn -0.001648 -0.005982 0.999969
vn -0.201819 -0.680960 0.703940
vn -0.283975 -0.958800 0.000000
vn -0.201819 -0.680960 -0.703940
vn -0.001648 -0.005982 -0.999969
vn 0.201300 0.674764 -0.710013
vn 0.286233 0.958129 0.000000
vn 0.201300 0.674764 0.710013
vn -0.002899 -0.016602 0.999847
vn -0.137028 -0.702200 0.698630
vn -0.190924 -0.981597 0.000000
vn -0.137028 -0.702200 -0.698630
vn -0.002899 -0.016602 -0.999847
vn 0.139012 0.685202 -0.714927
vn 0.200842 0.979614 0.000000
vn 0.139012 0.685202 0.714927
vn -0.003523 -0.031811 0.999488
vn -0.089606 -0.718320 0.689919
vn -0.122423 -0.992478 0.000000
vn -0.089606 -0.718320 -0.689918
vn -0.003523 -0.031811 -0.999488
vn 0.094290 0.686214 -0.721263
vn 0.139092 0.990279 -0.000000
vn 0.094290 0.686214 0.721263
s 1
f 1//1 9//2 8//3
f 2//4 10//5 1//1
f 3//6 11//7 2//4
f 4//8 12//9 11//7
f 5//10 13//11 12//9
f 6//12 14//13 13//11
f 7//14 15//15 14//13
f 8//3 16//16 7//14
f 9//2 17//17 16//16
f 10//5 18//18 9//2
f 11//7 19//19 10//5
f 12//9 20//20 19//19
f 13//11 21//21 20//20
f 14//13 22//22 21//21
f 15//15 23//23 22//22
f 16//16 24//24 15//15
f 17//17 25//25 24//24
f 18//18 26//26 17//17
f 19//19 27//27 18//18
f 20//20 28//28 27//27
f 21//21 29//29 28//28
f 22//22 30//30 29//29
f 23//23 31//31 30//30
f 24//24 32//32 23//23
f 25//25 33//33 32//32
f 26//26 34//34 25//25
f 27//27 35//35 26//26
f 28//28 36//36 35//35
f 29//29 37//37 36//36
f 30//30 38//38 37//37
f 31//31 39//39 38//38
f 32//32 40//40 31//31
f 33//33 41//41 40//40
f 34//34 42//42 33//33
f 35//35 43//43 34//34
f 36//36 44//44 43//43
f 37//37 45//45 44//44
f 38//38 46//46 45//45
f 39//39 47//47 46//46
f 40//40 48//48 39//39
f 41//41 49//49 48//48
f 42//42 50//50 41//41
f 43//43 51//51 42//42
f 44//44 52//52 51//51
f 45//45 53//53 52//52
f 46//46 54//54 53//53
f 47//47 55//55 54//54
f 48//48 56//56 47//47
f 9//2 16//16 8//3
f 10//5 9//2 1//1
f 11//7 10//5 2//4
f 3//6 4//8 11//7
f 4//8 5//10 12//9
f 5//10 6//12 13//11
f 6//12 7//14 14//13
f 16//16 15//15 7//14
f 17//17 24//24 16//16
f 18//18 17//17 9//2
f 19//19 18//18 10//5
f 11//7 12//9 19//19
f 12//9 13//11 20//20
f 13//11 14//13 21//21
f 14//13 15//15 22//22
f 24//24 23//23 15//15
f 25//25 32//32 24//24
f 26//26 25//25 17//17
f 27//27 26//26 18//18
f 19//19 20//20 27//27
f 20//20 21//21 28//28
f 21//21 22//22 29//29
f 22//22 23//23 30//30
f 32//32 31//31 23//23
f 33//33 40//40 32//32
f 34//34 33//33 25//25
f 35//35 34//34 26//26
f 27//27 28//28 35//35
f 28//28 29//29 36//36
f 29//29 30//30 37//37
f 30//30 31//31 38//38
f 40//40 39//39 31//31
f 41//41 48//48 40//40
f 42//42 41//41 33//33
f 43//43 42//42 34//34
f 35//35 36//36 43//43
f 36//36 37//37 44//44
f 37//37 38//38 45//45
f 38//38 39//39 46//46
f 48//48 47//47 39//39
f 49//49 56//56 48//48
f 50//50 49//49 41//41
f 51//51 50//50 42//42
f 43//43 44//44 51//51
f 44//44 45//45 52//52
f 45//45 46//46 53//53
f 46//46 47//47 54//54
f 56//56 55//55 47//47
