# Blender v2.69 (sub 0) OBJ File: 'kernel-thick.blend'
# www.blender.org
o Cylinder.001
v 1.000000 0.900001 -1.500000
v 1.000000 0.899999 0.500000
v 1.282843 0.782843 -1.500000
v 1.282843 0.782842 0.500000
v 1.400000 0.500001 -1.500000
v 1.400000 0.499999 0.500000
v 1.282843 0.217158 -1.500000
v 1.282843 0.217157 0.500000
v 1.000000 0.100001 -1.500000
v 1.000000 0.099999 0.500000
v 0.717157 0.217158 -1.500000
v 0.717157 0.217157 0.500000
v 0.600000 0.500001 -1.500000
v 0.600000 0.499999 0.500000
v 0.717157 0.782843 -1.500000
v 0.717157 0.782842 0.500000
vn 0.000000 1.000000 0.000001
vn 0.707107 0.707107 0.000000
vn 1.000000 -0.000000 0.000000
vn 0.707107 -0.707107 -0.000000
vn -0.000000 -1.000000 -0.000001
vn -0.707107 -0.707107 -0.000000
vn -1.000000 0.000000 0.000000
vn -0.707107 0.707107 0.000000
s 1
f 1//1 2//1 3//2
f 3//2 4//2 5//3
f 5//3 6//3 7//4
f 7//4 8//4 9//5
f 9//5 10//5 11//6
f 11//6 12//6 13//7
f 15//8 16//8 1//1
f 13//7 14//7 15//8
f 2//1 4//2 3//2
f 4//2 6//3 5//3
f 6//3 8//4 7//4
f 8//4 10//5 9//5
f 10//5 12//6 11//6
f 12//6 14//7 13//7
f 16//8 2//1 1//1
f 14//7 16//8 15//8
